<?xml version="1.0" encoding="UTF-8" standalone="no"?>
<!-- Created with Inkscape (http://www.inkscape.org/) -->

<svg
   xmlns:dc="http://purl.org/dc/elements/1.1/"
   xmlns:cc="http://creativecommons.org/ns#"
   xmlns:rdf="http://www.w3.org/1999/02/22-rdf-syntax-ns#"
   xmlns:svg="http://www.w3.org/2000/svg"
   xmlns="http://www.w3.org/2000/svg"
   xmlns:sodipodi="http://sodipodi.sourceforge.net/DTD/sodipodi-0.dtd"
   xmlns:inkscape="http://www.inkscape.org/namespaces/inkscape"
   width="150.25871"
   height="150.25871"
   id="svg14350"
   sodipodi:version="0.32"
   inkscape:version="0.48.4 r9939"
   version="1.0"
   sodipodi:docname="hop.svg"
   inkscape:output_extension="org.inkscape.output.svg.inkscape">
  <metadata
     id="metadata9">
    <rdf:RDF>
      <cc:Work
         rdf:about="">
        <dc:format>image/svg+xml</dc:format>
        <dc:type
           rdf:resource="http://purl.org/dc/dcmitype/StillImage" />
      </cc:Work>
    </rdf:RDF>
  </metadata>
  <defs
     id="defs3">
    <inkscape:perspective
       sodipodi:type="inkscape:persp3d"
       inkscape:vp_x="0 : 75.129349 : 1"
       inkscape:vp_y="0 : 1000 : 0"
       inkscape:vp_z="150.2587 : 75.129349 : 1"
       inkscape:persp3d-origin="75.129349 : 50.086233 : 1"
       id="perspective10" />
  </defs>
  <sodipodi:namedview
     inkscape:document-units="mm"
     id="base"
     pagecolor="#ffffff"
     bordercolor="#666666"
     borderopacity="1.0"
     inkscape:pageopacity="0.0"
     inkscape:pageshadow="2"
     inkscape:zoom="11.2"
     inkscape:cx="75.719053"
     inkscape:cy="65.232979"
     inkscape:current-layer="layer1"
     inkscape:window-width="1687"
     inkscape:window-height="1337"
     inkscape:window-x="36"
     inkscape:window-y="12"
     showgrid="false"
     inkscape:window-maximized="0" />
  <g
     inkscape:label="Layer 1"
     inkscape:groupmode="layer"
     id="layer1"
     transform="translate(-518.4421,-458.66142)">
    <rect
       style="fill:#ffcb00;fill-opacity:1;stroke:#000000;stroke-width:3.74880409;stroke-miterlimit:4;stroke-dasharray:none;stroke-opacity:1"
       id="rect3527"
       width="106.67611"
       height="106.67611"
       x="743.82739"
       y="-95.609375"
       ry="5.2659869"
       transform="matrix(0.7071068,0.7071068,-0.7071068,0.7071068,0,0)" />
    <path
       style="fill:#020202"
       d="m 626.93614,565.81982 c -0.2032,-0.0436 -1.45008,-0.32088 -2.77086,-0.61622 -3.34739,-0.74855 -4.82574,-1.02234 -8.95908,-1.65927 -10.04565,-1.54797 -13.05403,-2.17572 -15.06932,-3.14446 -1.78703,-0.85902 -2.35002,-1.4005 -3.28094,-3.15558 -0.99509,-1.87605 -1.66887,-3.89063 -2.89815,-8.66534 -0.58854,-2.28595 -1.20669,-4.53034 -1.37368,-4.98753 -0.39623,-1.08482 -2.27554,-4.93695 -2.72388,-5.58328 -0.19204,-0.27686 -1.07234,-0.89232 -1.95621,-1.36769 -3.14571,-1.69186 -5.67142,-3.32601 -7.24109,-4.68506 -1.03602,-0.89701 -2.03195,-1.87697 -2.03195,-1.99938 0,-0.0716 -0.18704,-0.33722 -0.41563,-0.59018 -0.2286,-0.25295 -0.58188,-0.77538 -0.78508,-1.16093 -0.42227,-0.80125 -0.72029,-0.80759 -1.93444,-0.0411 -0.93906,0.5928 -3.10062,1.74286 -5.93464,3.15751 -3.85626,1.92494 -6.66653,2.93505 -10.95476,3.93752 -1.26082,0.29475 -5.78134,0.24594 -7.49522,-0.0809 -2.34642,-0.44749 -5.46534,-1.44778 -7.21559,-2.31416 -1.94764,-0.96407 -2.84649,-1.98499 -4.2585,-4.83682 -1.94692,-3.93217 -2.30505,-5.66629 -1.37702,-6.66766 0.80056,-0.86382 1.16358,-0.6586 1.74942,0.98901 0.76092,2.13996 1.70045,3.66912 3.3337,5.42583 2.93235,3.15401 7.43582,4.32473 11.45844,2.97875 2.64665,-0.88558 7.71539,-3.7172 9.32853,-5.21134 0.2032,-0.18821 0.78508,-0.65651 1.29306,-1.04068 1.51611,-1.14656 8.86487,-8.05047 10.32681,-9.70168 1.48038,-1.67204 7.78822,-6.80377 9.80804,-7.97932 1.86847,-1.08745 2.16415,-1.22426 3.78683,-1.75211 1.40369,-0.45661 1.84431,-0.51149 4.15628,-0.51764 4.20005,-0.0112 6.78238,0.88531 10.45989,3.63126 1.86672,1.39386 3.27889,2.7979 6.72433,6.68563 3.29419,3.71706 6.45365,6.90677 7.56871,7.64117 0.65263,0.42984 0.92265,0.48666 2.31293,0.48666 1.4012,0 1.70737,-0.0657 2.78855,-0.59791 1.43191,-0.70493 2.65931,-1.63077 2.38592,-1.79973 -0.10546,-0.0652 -0.91889,-0.49379 -1.80762,-0.95248 -3.08601,-1.59272 -4.13175,-2.56593 -3.86328,-3.59535 0.16921,-0.64885 1.25359,-1.27472 2.20855,-1.27472 0.77824,0 2.36759,0.64727 3.15252,1.28389 0.61389,0.49789 3.14103,2.66704 3.71169,3.1859 0.30138,0.27402 0.87552,0.55357 1.27585,0.62121 0.96341,0.16276 1.80275,0.52434 2.45191,1.05625 0.73655,0.60351 1.54256,1.07263 3.57822,2.08265 2.89079,1.43428 4.61809,2.75131 4.61809,3.5212 0,0.5129 -0.7573,0.99011 -2.48432,1.56546 l -1.28362,0.42764 -3.2421,-0.41062 c -3.03697,-0.38465 -3.31224,-0.39241 -4.35044,-0.12261 -1.72993,0.44955 -3.39918,1.69114 -6.59952,4.90872 -3.3481,3.36614 -4.52811,4.2995 -6.07953,4.80881 -1.62275,0.53271 -2.03012,0.95592 -5.79649,6.02178 -1.67137,2.24803 -3.09604,3.57091 -4.64372,4.31193 -1.22443,0.58625 -2.83438,0.91554 -2.83438,0.57971 0,-0.10855 -0.14547,-0.24395 -0.32326,-0.30086 -0.48615,-0.15562 -1.33925,-1.62981 -1.33925,-2.31426 0,-0.66185 0.86615,-1.64632 1.49732,-1.70185 0.89242,-0.0785 0.98369,-0.0449 1.08805,0.40023 0.13633,0.58153 0.80227,0.70457 1.56828,0.28976 0.68928,-0.37327 2.04273,-2.37199 2.51381,-3.71232 0.47766,-1.35901 0.45845,-2.71076 -0.0514,-3.61796 -0.22191,-0.39482 -0.4505,-0.71822 -0.50799,-0.71866 -0.0575,-4.3e-4 -0.51667,-0.3745 -1.0204,-0.83125 -0.51081,-0.46318 -1.09845,-0.83046 -1.32868,-0.83046 -0.36449,0 -1.66364,0.62868 -1.91172,0.92512 -0.0508,0.0607 -0.38331,0.28718 -0.7389,0.5033 -1.76511,1.07276 -2.55687,2.78742 -2.70965,5.86815 -0.0558,1.12497 -0.005,2.77403 0.1127,3.69447 0.11741,0.91438 0.32092,2.74315 0.45225,4.06391 0.2686,2.70138 0.61555,3.61691 1.62409,4.28563 1.29863,0.86105 6.93359,2.92477 12.89708,4.72336 6.85801,2.06837 7.87328,2.40543 11.0834,3.67961 2.4362,0.96698 2.95558,1.28964 2.95558,1.83608 0,0.56675 -1.68998,1.1733 -2.67849,0.96132 z"
       id="path4500"
       inkscape:connector-curvature="0"
       sodipodi:nodetypes="ccssssscsssccssssssssssssssssssssscscssscsssscssssssssssccsccssccscssssscc" />
  </g>
</svg>
