<?xml version="1.0" encoding="UTF-8" standalone="no"?>
<!-- Created with Inkscape (http://www.inkscape.org/) -->

<svg
   xmlns:dc="http://purl.org/dc/elements/1.1/"
   xmlns:cc="http://creativecommons.org/ns#"
   xmlns:rdf="http://www.w3.org/1999/02/22-rdf-syntax-ns#"
   xmlns:svg="http://www.w3.org/2000/svg"
   xmlns="http://www.w3.org/2000/svg"
   xmlns:sodipodi="http://sodipodi.sourceforge.net/DTD/sodipodi-0.dtd"
   xmlns:inkscape="http://www.inkscape.org/namespaces/inkscape"
   width="531.49561"
   height="155.15509"
   id="svg5366"
   version="1.1"
   inkscape:version="0.48.4 r9939"
   sodipodi:docname="inria.svgz"
   inkscape:export-filename="/users/serrano/diffusion/talk/cdf13/inria.png"
   inkscape:export-xdpi="42.170326"
   inkscape:export-ydpi="42.170326">
  <defs
     id="defs5368">
    <clipPath
       clipPathUnits="userSpaceOnUse"
       id="clipPath2366">
      <path
         inkscape:connector-curvature="0"
         d="m 0,841.89 595.276,0 L 595.276,0 0,0 0,841.89 z"
         id="path2368" />
    </clipPath>
  </defs>
  <sodipodi:namedview
     id="base"
     pagecolor="#ffffff"
     bordercolor="#666666"
     borderopacity="1.0"
     inkscape:pageopacity="0.0"
     inkscape:pageshadow="2"
     inkscape:zoom="0.6"
     inkscape:cx="264.10145"
     inkscape:cy="-72.305"
     inkscape:current-layer="layer1"
     inkscape:document-units="px"
     showgrid="false"
     fit-margin-top="0"
     fit-margin-left="0"
     fit-margin-right="0"
     fit-margin-bottom="0"
     inkscape:window-width="1063"
     inkscape:window-height="751"
     inkscape:window-x="489"
     inkscape:window-y="186"
     inkscape:window-maximized="0" />
  <metadata
     id="metadata5371">
    <rdf:RDF>
      <cc:Work
         rdf:about="">
        <dc:format>image/svg+xml</dc:format>
        <dc:type
           rdf:resource="http://purl.org/dc/dcmitype/StillImage" />
        <dc:title></dc:title>
      </cc:Work>
    </rdf:RDF>
  </metadata>
  <g
     id="layer1"
     inkscape:label="Layer 1"
     inkscape:groupmode="layer"
     transform="translate(-135.89855,-72.539909)">
    <g
       transform="matrix(1.25,0,0,-1.25,30.704791,934.48375)"
       id="g2362">
      <g
         id="g2364"
         clip-path="url(#clipPath2366)">
        <g
           id="g2370"
           transform="translate(222.834,591.543)">
          <path
             inkscape:connector-curvature="0"
             d="m 0,0 c -5.603,-5.474 -17.872,-14.635 -28.595,-14.635 -7.931,0 7.866,14.21 15.69,25.667 7.467,10.944 1.361,14.22 -4.806,14.22 -15.268,0 -30.182,-10.717 -40.293,-18.254 3.054,4.089 7.809,9.332 12.881,16.025 2.81,3.718 -14.025,2.385 -18.333,-3.287 -1.373,-1.794 -2.887,-3.808 -4.501,-5.962 -14.611,-17.562 -36.682,-29.411 -47.513,-29.411 -6.036,0 -8.232,4.158 -4.475,12.016 9.056,18.948 40.266,54.953 57.228,70.718 7.7,7.216 -15.439,4.278 -20.746,-1.054 -23.503,-23.656 -47.164,-50.049 -53.836,-70.592 -3.687,-11.359 -0.284,-21.563 13.828,-21.563 11.587,0 24.42,5.739 35.32,12.556 -2.681,-3.655 -5.13,-6.976 -7.096,-9.65 -3.075,-4.168 12.518,-2.645 15.809,1.553 12.334,15.777 41.968,35.189 50.22,35.189 7.508,0 -18.357,-19.383 -18.117,-31.248 0.3,-15.582 36.395,-6.039 48.642,9.999 C 3.228,-5.213 1.729,1.676 0,0 m 124.322,-15.746 c -14.31,0 14.346,32.702 33.012,32.702 11.176,0 -19.211,-32.702 -33.012,-32.702 m 156.617,14.212 c -23.683,14.755 -88.451,-10.958 -113.017,-13.887 -4.604,-0.552 -6.279,0.612 -5.193,3.735 2.084,6.023 10.294,17.1 11.947,20.916 1.558,3.642 1.345,16.165 -17.176,16.165 -15.135,0 -29.02,-7.028 -38.779,-15.876 -9.299,-7.929 -27.315,-23.621 -38.407,-23.621 -11.479,0 22.145,34.687 24.002,36.438 4.998,4.689 -10.759,3.532 -17.38,-1.512 C 84.291,18.811 73.722,7.507 67.11,-3.44 47.989,-16.658 28.954,-19.727 38.012,-8.739 42.826,-2.882 50.974,4.96 56.578,11.172 64.4,19.849 62.988,25.557 45.715,25.557 22.594,25.557 20.147,23.545 7.103,8.27 4.684,5.428 5.936,-1.686 8.435,0.783 24.083,16.264 23.728,15.003 44.443,15.003 41.111,11.465 35.176,7.936 25.106,-4.844 c -8.972,-11.401 -3.102,-20.615 9.64,-20.615 7.046,0 17.564,3.305 27.183,10.084 -1.153,-5.94 1.233,-10.192 10.306,-10.192 10.511,0 22.513,6.253 32.458,13.207 -1.246,-7.544 2.637,-13.207 13.764,-13.207 8.561,0 18.529,3.362 28.82,12.284 -0.054,-6.818 4.754,-12.233 13.717,-12.233 21.824,0 97.199,27.375 123.424,11.565 3.283,-1.971 3.137,8.303 -3.479,12.417 m -167.97,36.365 c 5.81,3.501 16.74,11.986 22.119,17.436 4.203,4.265 -14.287,2.363 -18.733,-1.434 -4.789,-4.094 -12.748,-11.425 -17.25,-16.703 -2.625,-3.078 8.1,-2.769 13.864,0.701 M -53.599,81.94 c 5.814,3.503 11.798,8.189 17.171,13.641 4.204,4.266 -14.283,2.361 -18.732,-1.435 -4.781,-4.089 -9.703,-8.605 -14.203,-13.88 -2.631,-3.072 10.001,-1.799 15.764,1.674"
             style="fill-opacity:1;fill-rule:nonzero;stroke:none"
             id="path2372" />
        </g>
      </g>
    </g>
  </g>
</svg>
