<?xml version="1.0" encoding="UTF-8" standalone="no"?>
<!-- Created with Inkscape (http://www.inkscape.org/) -->

<svg
   width="60.982838"
   height="60.982838"
   id="svg14350"
   sodipodi:version="0.32"
   inkscape:version="1.2.2 (b0a8486541, 2022-12-01)"
   version="1.0"
   sodipodi:docname="log.svg"
   inkscape:output_extension="org.inkscape.output.svg.inkscape"
   xmlns:inkscape="http://www.inkscape.org/namespaces/inkscape"
   xmlns:sodipodi="http://sodipodi.sourceforge.net/DTD/sodipodi-0.dtd"
   xmlns="http://www.w3.org/2000/svg"
   xmlns:svg="http://www.w3.org/2000/svg"
   xmlns:rdf="http://www.w3.org/1999/02/22-rdf-syntax-ns#"
   xmlns:cc="http://creativecommons.org/ns#"
   xmlns:dc="http://purl.org/dc/elements/1.1/">
  <metadata
     id="metadata9">
    <rdf:RDF>
      <cc:Work
         rdf:about="">
        <dc:format>image/svg+xml</dc:format>
        <dc:type
           rdf:resource="http://purl.org/dc/dcmitype/StillImage" />
      </cc:Work>
    </rdf:RDF>
  </metadata>
  <defs
     id="defs3">
    <inkscape:perspective
       sodipodi:type="inkscape:persp3d"
       inkscape:vp_x="0 : -14.146526 : 1"
       inkscape:vp_y="0 : 1000 : 0"
       inkscape:vp_z="150.2587 : -14.146526 : 1"
       inkscape:persp3d-origin="75.129349 : -39.189642 : 1"
       id="perspective10" />
  </defs>
  <sodipodi:namedview
     inkscape:document-units="mm"
     id="base"
     pagecolor="#ffffff"
     bordercolor="#666666"
     borderopacity="1.0"
     inkscape:pageopacity="0.0"
     inkscape:pageshadow="2"
     inkscape:zoom="7.919596"
     inkscape:cx="74.561885"
     inkscape:cy="48.866129"
     inkscape:current-layer="layer1"
     inkscape:window-width="1687"
     inkscape:window-height="1337"
     inkscape:window-x="36"
     inkscape:window-y="12"
     showgrid="false"
     inkscape:window-maximized="0"
     inkscape:showpageshadow="2"
     inkscape:pagecheckerboard="0"
     inkscape:deskcolor="#d1d1d1" />
  <g
     inkscape:label="Layer 1"
     inkscape:groupmode="layer"
     id="layer1"
     transform="translate(-519.89581,-460.30689)">
    <rect
       style="fill:#ffcb00;fill-opacity:1;stroke:#000000;stroke-width:1.52177;stroke-miterlimit:4;stroke-dasharray:none;stroke-opacity:1"
       id="rect3527"
       width="43.303677"
       height="43.303677"
       x="714.57751"
       y="-63.787567"
       ry="2.1376536"
       transform="rotate(45)" />
    <path
       style="fill:#020202;stroke-width:0.405936"
       d="m 563.93115,503.80004 c -0.0824,-0.0177 -0.58863,-0.13026 -1.12479,-0.25014 -1.35883,-0.30387 -1.95894,-0.415 -3.63682,-0.67357 -4.07788,-0.62836 -5.2991,-0.8832 -6.11717,-1.27645 -0.72543,-0.3487 -0.95397,-0.5685 -1.33186,-1.28096 -0.40393,-0.76155 -0.67746,-1.57934 -1.17646,-3.51758 -0.23891,-0.92794 -0.48984,-1.83902 -0.55762,-2.02461 -0.16085,-0.44037 -0.92374,-2.00408 -1.10573,-2.26645 -0.0779,-0.11239 -0.4353,-0.36224 -0.79409,-0.5552 -1.27696,-0.68678 -2.30225,-1.35014 -2.93943,-1.90184 -0.42055,-0.36412 -0.82484,-0.76193 -0.82484,-0.81161 0,-0.029 -0.0759,-0.1369 -0.16872,-0.23958 -0.0927,-0.10267 -0.2362,-0.31476 -0.31868,-0.47126 -0.17143,-0.32525 -0.2924,-0.32784 -0.78526,-0.0167 -0.3812,0.24064 -1.25866,0.70749 -2.40909,1.28175 -1.56539,0.7814 -2.70619,1.19145 -4.44693,1.59838 -0.51181,0.11966 -2.34686,0.0999 -3.04258,-0.0329 -0.9525,-0.18165 -2.21859,-0.58771 -2.92907,-0.9394 -0.79062,-0.39135 -1.1555,-0.80578 -1.72867,-1.96343 -0.79033,-1.59622 -0.93571,-2.30016 -0.55899,-2.70665 0.32497,-0.35066 0.47234,-0.26735 0.71015,0.40147 0.30889,0.8687 0.69027,1.48943 1.35328,2.20254 1.19034,1.28033 3.01846,1.75556 4.65139,1.20919 1.07436,-0.35949 3.13195,-1.50895 3.78678,-2.11548 0.0824,-0.0763 0.31869,-0.2665 0.5249,-0.42245 0.61545,-0.46543 3.59857,-3.26798 4.19202,-3.93825 0.60094,-0.67875 3.16153,-2.76191 3.98144,-3.2391 0.75848,-0.44144 0.87851,-0.49697 1.53721,-0.71124 0.56981,-0.18537 0.74868,-0.20763 1.68719,-0.21014 1.70495,-0.005 2.75321,0.35938 4.24605,1.47406 0.75776,0.56583 1.33102,1.13578 2.72964,2.71395 1.33723,1.50889 2.61977,2.8037 3.0724,3.10182 0.26494,0.17449 0.37455,0.19756 0.93892,0.19756 0.56879,0 0.69307,-0.0267 1.13197,-0.24272 0.58126,-0.28616 1.07951,-0.66198 0.96852,-0.73058 -0.0428,-0.0264 -0.373,-0.20044 -0.73377,-0.38664 -1.25272,-0.64654 -1.67723,-1.04161 -1.56824,-1.45949 0.0688,-0.26338 0.50887,-0.51745 0.89652,-0.51745 0.31591,0 0.9611,0.26275 1.27973,0.52118 0.2492,0.20211 1.27505,1.08265 1.5067,1.29327 0.12234,0.11123 0.35541,0.22472 0.51792,0.25217 0.39108,0.0661 0.7318,0.21285 0.99532,0.42878 0.29899,0.24498 0.62617,0.43541 1.45253,0.84541 1.17348,0.58223 1.87465,1.11686 1.87465,1.42939 0,0.2082 -0.30742,0.40191 -1.00848,0.63547 l -0.52107,0.17359 -1.31608,-0.16667 c -1.23282,-0.15615 -1.34456,-0.15931 -1.76599,-0.0498 -0.70225,0.18249 -1.37987,0.68649 -2.679,1.99262 -1.35911,1.36645 -1.83812,1.74533 -2.46789,1.95207 -0.65874,0.21625 -0.8241,0.38805 -2.35301,2.44447 -0.67847,0.91255 -1.25679,1.44956 -1.88505,1.75036 -0.49705,0.23798 -1.15059,0.37165 -1.15059,0.23533 0,-0.0441 -0.059,-0.099 -0.13122,-0.12214 -0.19734,-0.0632 -0.54364,-0.66159 -0.54364,-0.93943 0,-0.26867 0.3516,-0.6683 0.60782,-0.69084 0.36225,-0.0319 0.39931,-0.0183 0.44167,0.16246 0.0554,0.23607 0.32567,0.28601 0.63663,0.11763 0.2798,-0.15153 0.82921,-0.96288 1.02045,-1.50696 0.1939,-0.55168 0.18609,-1.1004 -0.0208,-1.46867 -0.0901,-0.16027 -0.18287,-0.29154 -0.20621,-0.29173 -0.0233,-1.8e-4 -0.20973,-0.15202 -0.41421,-0.33743 -0.20736,-0.18803 -0.4459,-0.33712 -0.53936,-0.33712 -0.14797,0 -0.67534,0.25521 -0.77603,0.37554 -0.0206,0.0246 -0.15562,0.11658 -0.29995,0.20431 -0.71653,0.43547 -1.03793,1.13152 -1.09995,2.38209 -0.0227,0.45667 -0.002,1.12608 0.0457,1.49972 0.0477,0.37119 0.13027,1.11355 0.18359,1.64969 0.10904,1.0966 0.24987,1.46824 0.65927,1.73969 0.52716,0.34953 2.81459,1.18727 5.23539,1.91739 2.78391,0.83962 3.19604,0.97645 4.49916,1.49368 0.98893,0.39253 1.19976,0.52351 1.19976,0.74533 0,0.23006 -0.68602,0.47628 -1.08729,0.39024 z"
       id="path4500"
       inkscape:connector-curvature="0"
       sodipodi:nodetypes="ccssssscsssccssssssssssssssssssssscscssscsssscssssssssssccsccssccscssssscc" />
  </g>
</svg>
